<?xml version="1.0" standalone="no"?>
<!DOCTYPE svg PUBLIC "-//W3C//DTD SVG 20010904//EN"
 "http://www.w3.org/TR/2001/REC-SVG-20010904/DTD/svg10.dtd">
<svg version="1.0" xmlns="http://www.w3.org/2000/svg"
 width="542.000000pt" height="542.000000pt" viewBox="0 0 542.000000 542.000000"
 preserveAspectRatio="xMidYMid meet">
<metadata>
Created by potrace 1.11, written by Peter Selinger 2001-2013
</metadata>
<g transform="translate(0.000000,542.000000) scale(0.100000,-0.100000)"
fill="#000000" stroke="none">
<path d="M2935 5234 c-717 -128 -1250 -663 -1382 -1384 -24 -133 -23 -409 1
-545 47 -262 154 -514 301 -710 l52 -70 -58 -75 c-32 -41 -68 -78 -79 -82 -11
-4 -20 -10 -20 -13 0 -4 5 -3 11 0 6 4 5 -2 -2 -13 -7 -12 -17 -18 -21 -16 -4
3 -8 -2 -8 -11 0 -8 -7 -18 -15 -21 -8 -4 -12 -11 -8 -17 4 -7 0 -8 -12 -3
-15 5 -16 4 -5 -9 11 -13 10 -14 -5 -9 -11 4 -16 3 -13 -2 4 -5 -1 -18 -9 -29
-13 -17 -15 -17 -9 -2 3 11 2 16 -4 12 -6 -3 -10 -15 -10 -26 0 -10 -4 -19
-10 -19 -5 0 -10 -6 -10 -14 0 -8 -21 -36 -46 -63 -26 -26 -47 -50 -48 -53 0
-3 -6 -4 -13 -4 -6 1 -9 -5 -6 -12 3 -8 -2 -17 -11 -20 -9 -3 -13 -10 -10 -15
3 -5 0 -9 -5 -9 -6 0 -10 -5 -8 -12 1 -7 -5 -13 -13 -13 -8 0 -14 -7 -12 -14
3 -15 -46 -76 -62 -76 -6 0 -10 -9 -8 -19 2 -11 -1 -15 -7 -11 -6 3 -11 1 -11
-5 0 -6 -4 -8 -10 -5 -5 3 -7 0 -4 -8 3 -8 0 -18 -7 -23 -8 -5 -10 -3 -4 7 5
8 4 11 -1 6 -5 -5 -9 -12 -10 -15 -4 -35 -83 -137 -106 -137 -6 0 -13 -7 -15
-15 -4 -13 -3 -13 6 0 6 8 11 10 11 5 0 -15 -37 -45 -46 -37 -4 4 -4 1 0 -6 8
-14 -28 -65 -39 -54 -3 4 -5 2 -3 -3 5 -16 -29 -58 -41 -51 -7 5 -8 1 -4 -10
5 -13 3 -16 -10 -11 -11 4 -14 2 -11 -8 3 -8 -5 -25 -19 -39 -14 -14 -22 -27
-19 -30 3 -3 1 -6 -5 -6 -5 0 -18 -16 -29 -35 -17 -32 -26 -39 -46 -36 -4 0
-5 -5 -2 -13 3 -7 -2 -16 -11 -20 -9 -3 -14 -10 -10 -15 3 -5 -4 -12 -15 -16
-11 -4 -18 -11 -15 -16 4 -5 -2 -9 -12 -9 -12 0 -14 -3 -6 -8 9 -5 4 -17 -17
-39 -16 -17 -26 -34 -22 -38 4 -5 0 -6 -9 -3 -9 4 -21 -2 -29 -15 -12 -21 -12
-21 6 -8 10 7 7 2 -8 -12 -15 -14 -24 -28 -20 -33 4 -4 -1 -4 -10 -1 -12 4
-15 2 -11 -9 3 -8 -1 -14 -10 -14 -9 0 -19 -5 -23 -12 -4 -7 -3 -8 4 -4 7 4
12 2 12 -3 0 -6 -4 -11 -10 -11 -5 0 -10 -5 -10 -11 0 -6 -16 -43 -35 -83 -85
-173 -82 -348 11 -525 18 -36 31 -68 28 -72 -2 -5 8 -16 23 -26 39 -26 83 -70
76 -77 -4 -3 5 -6 20 -6 14 0 29 -5 32 -10 12 -20 125 -70 192 -86 131 -31
301 -4 416 67 26 16 54 29 63 29 9 0 12 5 8 12 -5 8 -2 9 10 5 10 -4 15 -3 11
3 -3 5 6 17 20 26 14 9 25 22 25 29 0 7 10 15 22 18 19 5 20 8 7 23 -8 10 -9
15 -3 11 6 -3 20 1 30 9 10 9 12 13 4 9 -8 -4 -6 1 4 9 11 9 16 16 12 16 -4 0
1 13 10 29 10 17 22 27 28 24 6 -4 4 2 -4 12 -8 10 -10 16 -4 12 10 -6 38 19
42 38 5 26 37 73 46 68 5 -4 7 1 3 10 -4 10 0 20 9 25 9 5 16 13 16 18 0 5 4
8 10 6 5 -1 7 6 3 17 -4 13 2 25 17 38 13 10 24 25 26 33 2 8 9 18 15 22 7 4
8 8 3 8 -5 0 3 9 17 20 17 14 24 26 20 37 -4 11 -3 14 6 9 6 -4 11 -4 10 1 -4
17 14 63 22 57 8 -5 13 10 10 30 -1 5 5 6 13 3 10 -4 14 0 11 14 -2 10 0 19 5
19 6 0 16 16 24 35 8 19 18 35 21 35 3 0 3 -5 -1 -12 -4 -7 -3 -8 5 -4 6 4 9
11 6 16 -2 4 7 24 20 45 14 20 22 41 19 47 -4 7 -2 8 4 4 7 -4 12 -1 12 8 0 8
9 20 21 26 17 10 18 14 7 28 -11 13 -11 14 0 8 9 -5 15 -1 19 14 3 11 11 19
18 16 9 -3 11 2 7 16 -4 17 -2 20 13 14 15 -5 16 -4 5 9 -10 12 -9 15 6 15 16
0 17 2 4 10 -13 8 -13 10 1 10 9 0 20 7 23 16 5 12 3 14 -7 8 -7 -5 -1 1 13
14 14 12 24 29 22 37 -2 8 4 18 12 21 9 3 13 10 10 15 -3 5 1 12 10 15 8 3 20
20 26 37 8 26 13 29 20 17 7 -11 8 -6 5 18 -2 18 0 30 6 27 5 -4 9 0 9 8 0 8
12 27 28 42 15 16 20 25 12 21 -8 -4 -7 -1 3 7 14 11 15 16 5 20 -8 3 -5 6 6
6 11 1 16 4 12 8 -3 4 4 13 16 20 13 7 17 12 10 13 -7 0 -10 5 -7 10 4 6 12 7
18 3 7 -4 5 2 -3 12 -9 11 -10 16 -2 11 8 -4 12 -1 12 10 0 9 37 75 81 146 71
112 84 129 103 124 77 -23 223 -56 286 -67 114 -19 374 -17 504 5 914 151
1537 1012 1390 1921 -42 258 -155 527 -310 735 -108 144 -294 317 -447 414
-168 107 -406 200 -606 236 -140 25 -438 27 -566 4z m595 -217 c144 -35 279
-85 307 -116 20 -20 23 -21 18 -5 -6 16 -5 17 7 4 7 -8 35 -26 63 -40 48 -24
135 -78 145 -90 3 -3 21 -17 40 -30 65 -44 255 -244 311 -330 72 -109 111
-179 104 -190 -3 -5 0 -12 6 -16 8 -5 9 -3 4 7 -5 10 -5 11 2 4 19 -18 84
-207 111 -320 24 -99 26 -130 27 -310 0 -156 -4 -218 -18 -285 -24 -111 -86
-299 -106 -320 -9 -9 -17 -23 -19 -30 -11 -49 -98 -192 -172 -285 -69 -87
-222 -231 -311 -292 -114 -78 -336 -188 -405 -199 -6 -1 -36 -9 -65 -17 -30
-8 -70 -18 -89 -21 -19 -3 -46 -9 -60 -13 -51 -13 -375 -11 -441 2 -35 8 -65
14 -66 15 -2 0 -16 3 -33 6 -18 4 -27 11 -23 18 4 6 -1 5 -10 -3 -14 -11 -18
-11 -23 3 -3 9 -10 16 -16 16 -5 0 -6 -6 -2 -12 6 -10 4 -10 -7 -3 -8 6 -27
12 -44 14 -81 8 -301 120 -441 225 -142 106 -305 280 -308 330 -1 16 -6 22
-16 18 -8 -3 -12 -2 -8 2 4 5 -3 18 -16 31 -19 18 -112 195 -137 260 -13 33
-46 138 -55 170 -4 17 -9 37 -11 45 -21 83 -28 168 -28 325 1 164 5 213 31
325 18 78 62 210 76 228 6 6 8 12 4 12 -11 0 93 191 147 269 67 96 216 252
309 323 79 60 219 148 236 148 6 0 17 6 24 13 33 34 265 109 408 132 136 23
417 13 550 -18z m-1580 -4201 c0 -2 -8 -10 -17 -17 -16 -13 -17 -12 -4 4 13
16 21 21 21 13z"/>
<path d="M3105 4599 c-392 -61 -675 -385 -675 -774 0 -219 49 -326 310 -681
104 -142 242 -330 306 -417 64 -87 127 -162 139 -167 41 -15 64 1 129 89 35
47 172 235 306 416 312 424 355 509 367 726 18 315 -163 607 -460 744 -128 59
-293 84 -422 64z m240 -144 c149 -31 309 -139 394 -264 78 -115 111 -223 111
-363 0 -202 -37 -275 -375 -734 -143 -195 -263 -354 -266 -354 -8 0 -508 681
-550 749 -20 33 -48 97 -64 143 -23 69 -28 101 -28 188 -1 184 54 321 178 451
154 161 380 230 600 184z"/>
<path d="M3107 4150 c-98 -31 -161 -88 -209 -188 -109 -228 74 -495 329 -480
253 16 402 275 288 498 -43 83 -115 143 -206 171 -75 23 -127 23 -202 -1z
m208 -99 c93 -42 140 -121 140 -232 0 -67 -4 -81 -30 -124 -63 -99 -180 -145
-285 -111 -69 23 -114 58 -148 115 -23 39 -27 58 -27 121 0 84 16 127 68 180
47 48 101 70 177 70 42 0 79 -7 105 -19z"/>
<path d="M1875 701 c-3 -5 -2 -12 3 -15 5 -3 9 1 9 9 0 17 -3 19 -12 6z"/>
</g>
</svg>
