<svg version="1" xmlns="http://www.w3.org/2000/svg" width="533.333" height="533.333" viewBox="0 0 400.000000 400.000000"><path d="M215.5 6.1c-2.7.5-6.1 1.1-7.5 1.3-1.4.2-5.6 1.3-9.5 2.4-22.2 6.3-40.3 17-57 33.7-20 20-32.4 44.4-36.9 72.5-1.4 8.6-1.4 30.6-.2 39 1.3 8 5.6 22.8 9.1 31.2 3.6 8.5 13.6 25.8 16.1 27.9.8.6 1.4 1.5 1.4 2 0 .6-37.3 46.7-48.8 60.4-.9 1.1-5.5 6.7-10.2 12.5-4.7 5.7-9.5 11.6-10.7 13-9.7 11.3-18.8 23.4-20.9 27.7-3.7 7.4-5.1 16.8-3.7 24.8 1.6 9.4 5.8 16.9 13.8 25 10.2 10.3 19.9 14.9 32.8 15.4 16.1.6 30.1-8.3 41.1-26.4 2.7-4.4 6.4-10.4 8.3-13.3 7.9-12.4 11.2-17.7 34.8-55.8l24.9-40.2 4.9 1.5c14.4 4.3 36.7 6.1 50.7 4.2 10.9-1.5 12.3-1.8 18.9-3.4 13.3-3.5 27.5-9.8 39.1-17.7 8.8-5.9 11.1-7.9 21-17.8 18.9-19 31.9-45.2 35.7-72 1-7.1 1-29.8 0-37.5-1-8-5.1-22.2-9.2-32-16.6-40.1-55.9-71.1-99.2-78.1-5.9-1-34-1.2-38.8-.3zm32.1 19.4c26.4 3 52.2 17 70 38 20.7 24.4 29 51.6 26 85-.3 3.3-.8 7.1-1.1 8.5-.4 1.4-.8 3.6-1.1 4.9-.9 4.2-5 15.4-8.2 22.1-12 25.1-35.1 46-61.2 55.5-8.2 2.9-8.1 2.9-19 5.1-10.2 2.1-28.4 2.1-39.5 0-39.4-7.4-71.9-35.2-84.8-72.7-16.8-49 1.9-102.3 45.8-130.3 14.2-9.1 30.8-14.5 51.5-16.9 3.4-.4 15.3.1 21.6.8z"/><path d="M218.5 64.8c-11.7 2.9-23.3 10.7-30.7 20.7-12.6 17-14.4 38.8-4.8 59 6.4 13.4 40.2 61.9 45 64.5 3.1 1.6 6.7 1.2 9.4-1.3 3.4-3 38.6-52.6 43.1-60.7 5.1-9 7.4-18.6 7-28.5-.2-4.4-.6-8.9-.8-10-5.1-20.1-21.6-37.4-41.1-43-7.8-2.3-19.6-2.6-27.1-.7zM248 83.6c14.9 7.1 24.1 21.6 23.4 36.9-.2 6.6-2.6 14.5-5.5 18.7-1.1 1.4-1.9 2.9-1.9 3.3 0 1.1-31.3 44.5-32.1 44.5-.4 0-2-1.7-3.4-3.8-1.4-2-5.6-8-9.3-13.2-3.6-5.2-6.9-9.7-7.4-9.8-.4-.2-.8-.9-.8-1.5-.1-.7-2.3-4.1-4.9-7.6-5.6-7.3-11.6-18.8-12.9-24.6-4-17.9 7.6-37.1 26.6-44.3 3.2-1.3 7.3-1.8 13.2-1.8 7.3.1 9.4.5 15 3.2z"/></svg>