<?xml version="1.0" encoding="utf-8"?>
<!-- Generator: Adobe Illustrator 23.0.2, SVG Export Plug-In . SVG Version: 6.00 Build 0)  -->
<svg version="1.1" id="Layer_1" xmlns="http://www.w3.org/2000/svg" xmlns:xlink="http://www.w3.org/1999/xlink" x="0px" y="0px"
	 viewBox="0 0 1000 1000" style="enable-background:new 0 0 1000 1000;" xml:space="preserve">
<style type="text/css">
	.st0{fill:#EB5027;}
</style>
<path class="st0" d="M500,62.5C258.2,62.5,62.5,258.2,62.5,500S258.2,937.5,500,937.5S937.5,741.8,937.5,500S741.8,62.5,500,62.5z
	 M434.9,229.1c8.4-1.3,17.2-2.6,26.2-3.2c9.4-0.6,18.1-1,25.6-1c8.1,0,17.2,0.3,26.9,1c9.4,0.6,18.5,1.9,26.6,3.2
	c1.3,8.4,2.3,16.5,2.9,24.6c0.3,8.1,0.6,16.5,0.6,24.6c0,7.8-0.3,15.9-0.6,24.3c-0.6,8.4-1.6,16.5-2.9,25
	c-8.1,1.3-16.9,2.3-26.2,2.9c-9.4,0.3-18.1,0.6-26.3,0.6c-7.8,0-16.5-0.3-25.9-0.6c-9.7-0.6-18.5-1.6-26.9-2.9
	c-2.9-16.5-4.2-33.1-4.2-49.3C430.6,262.8,431.9,246.3,434.9,229.1L434.9,229.1z M598.2,775.1H401.8c-2.9-12.6-4.2-25.6-4.2-38.9
	c0-6.2,0.3-13,1-20.1c0.6-7.1,1.9-13.9,3.2-20.1h48V470.5h-48c-1.3-6.2-2.6-13-3.2-20.1s-1-13.6-1-20.1c0-13.3,1.3-26.2,4.2-38.9
	h148.4V696h48c1.3,6.2,2.6,13,3.2,20.1s1,13.9,1,20.1C602.4,749.5,601.1,762.5,598.2,775.1z"/>
</svg>
